<?xml version="1.0" standalone="no"?>
<!DOCTYPE svg PUBLIC "-//W3C//DTD SVG 20010904//EN"
 "http://www.w3.org/TR/2001/REC-SVG-20010904/DTD/svg10.dtd">
<svg version="1.0" xmlns="http://www.w3.org/2000/svg"
 width="360.000000pt" height="360.000000pt" viewBox="0 0 360.000000 360.000000"
 preserveAspectRatio="xMidYMid meet">

<g transform="translate(0.000000,360.000000) scale(0.100000,-0.100000)"
fill="#000000" stroke="none">
<path d="M1773 3374 c-160 -35 -319 -129 -462 -272 l-94 -95 5 65 c3 35 13 79
22 97 17 31 17 32 -2 22 -25 -13 -90 -85 -131 -144 -97 -142 -154 -364 -153
-602 0 -152 15 -231 57 -310 18 -35 41 -99 50 -142 27 -129 31 -136 39 -78 19
138 48 212 98 255 46 39 47 81 4 163 -90 171 -9 297 241 377 249 80 510 79
741 -1 258 -91 341 -219 261 -402 -40 -91 -42 -133 -6 -183 31 -45 47 -118 47
-213 1 -60 2 -64 15 -47 8 11 17 36 20 55 15 91 29 134 57 173 66 90 73 119
72 278 0 111 -6 167 -22 240 -26 111 -27 145 -7 193 16 40 66 93 95 102 30 10
25 20 -30 55 -69 45 -189 81 -287 87 -46 3 -83 9 -83 13 0 13 89 61 163 91
l69 26 -74 31 c-103 42 -176 56 -303 56 -107 0 -231 -19 -317 -48 -34 -12 -38
-12 -38 3 0 27 57 118 92 145 l33 26 -55 -1 c-30 -1 -83 -7 -117 -15z"/>
<path d="M2396 1553 c-16 -35 -49 -98 -74 -140 l-45 -77 2 -91 c4 -173 -53
-334 -155 -445 -57 -61 -176 -146 -272 -194 l-53 -27 -99 65 c-119 80 -208
174 -255 270 -41 83 -55 149 -55 256 0 75 -1 79 -39 126 -46 59 -117 173 -143
232 l-19 43 -30 -22 c-77 -55 -168 -203 -190 -308 -11 -54 -7 -215 7 -273 6
-25 2 -29 -57 -58 -104 -52 -255 -158 -305 -213 -26 -29 -58 -75 -72 -104 -26
-52 -26 -52 -6 -74 37 -42 200 -173 279 -225 159 -103 358 -192 528 -234 45
-12 90 -23 100 -26 16 -5 17 11 17 245 0 214 2 252 16 265 8 9 21 16 28 16 33
0 36 -22 36 -281 0 -212 2 -258 14 -262 30 -12 258 -19 369 -12 l117 7 2 265
c3 241 5 267 21 277 12 8 22 8 35 0 15 -10 17 -36 20 -268 l2 -258 43 7 c66
11 254 70 346 109 169 71 363 195 491 314 l65 60 -34 67 c-19 37 -55 90 -81
118 -50 55 -174 149 -256 193 -27 15 -50 28 -52 30 -2 1 7 22 19 45 30 60 37
191 15 277 -26 102 -82 205 -154 283 -92 99 -91 99 -126 22z"/>
</g>
</svg>
